<svg xmlns="http://www.w3.org/2000/svg" viewBox="0 0 960 600" width="960" height="600">
  <rect width="960" height="600" fill="#f1f5f9"/>
  <!-- Header -->
  <rect width="960" height="60" fill="#ffffff" stroke="#e2e8f0" stroke-width="1"/>
  <text x="24" y="20" font-family="system-ui,sans-serif" font-size="9" fill="#94a3b8" font-weight="700" letter-spacing="1.5">SEGURIDAD Y TRAZABILIDAD</text>
  <text x="24" y="44" font-family="system-ui,sans-serif" font-size="19" fill="#0f172a" font-weight="900">Historial de Auditoría</text>
  <rect x="810" y="16" width="66" height="34" rx="8" fill="#f1f5f9" stroke="#e2e8f0" stroke-width="1"/>
  <text x="843" y="38" font-family="system-ui,sans-serif" font-size="12" fill="#64748b" font-weight="600" text-anchor="middle">CSV</text>
  <rect x="886" y="16" width="70" height="34" rx="8" fill="#f1f5f9" stroke="#e2e8f0" stroke-width="1"/>
  <text x="921" y="38" font-family="system-ui,sans-serif" font-size="12" fill="#64748b" font-weight="600" text-anchor="middle">Excel</text>
  <!-- Filter bar -->
  <rect x="24" y="76" width="912" height="60" rx="12" fill="#ffffff" stroke="#e2e8f0" stroke-width="1"/>
  <rect x="40" y="90" width="280" height="32" rx="8" fill="#f8fafc" stroke="#e2e8f0" stroke-width="1"/>
  <text x="58" y="111" font-family="system-ui,sans-serif" font-size="12" fill="#94a3b8">🔍  Buscar...</text>
  <rect x="336" y="90" width="135" height="32" rx="8" fill="#f8fafc" stroke="#e2e8f0" stroke-width="1"/>
  <text x="392" y="111" font-family="system-ui,sans-serif" font-size="11" fill="#64748b" text-anchor="middle">Todas las tablas ▾</text>
  <rect x="487" y="90" width="120" height="32" rx="8" fill="#f8fafc" stroke="#e2e8f0" stroke-width="1"/>
  <text x="540" y="111" font-family="system-ui,sans-serif" font-size="11" fill="#64748b" text-anchor="middle">Todas acciones ▾</text>
  <rect x="623" y="90" width="120" height="32" rx="8" fill="#f8fafc" stroke="#e2e8f0" stroke-width="1"/>
  <text x="683" y="111" font-family="system-ui,sans-serif" font-size="11" fill="#94a3b8" text-anchor="middle">Desde...</text>
  <rect x="759" y="90" width="120" height="32" rx="8" fill="#f8fafc" stroke="#e2e8f0" stroke-width="1"/>
  <text x="819" y="111" font-family="system-ui,sans-serif" font-size="11" fill="#94a3b8" text-anchor="middle">Hasta...</text>
  <!-- Table card -->
  <rect x="24" y="152" width="912" height="430" rx="12" fill="#ffffff" stroke="#e2e8f0" stroke-width="1"/>
  <!-- Table header -->
  <rect x="24" y="152" width="912" height="36" rx="12" fill="#f8fafc"/>
  <rect x="24" y="172" width="912" height="16" fill="#f8fafc"/>
  <text x="44" y="176" font-family="system-ui,sans-serif" font-size="10" fill="#64748b" font-weight="700">FECHA Y HORA</text>
  <text x="205" y="176" font-family="system-ui,sans-serif" font-size="10" fill="#64748b" font-weight="700">USUARIO</text>
  <text x="380" y="176" font-family="system-ui,sans-serif" font-size="10" fill="#64748b" font-weight="700">ACCIÓN</text>
  <text x="470" y="176" font-family="system-ui,sans-serif" font-size="10" fill="#64748b" font-weight="700">TABLA</text>
  <text x="650" y="176" font-family="system-ui,sans-serif" font-size="10" fill="#64748b" font-weight="700">ID REGISTRO</text>
  <!-- Rows -->
  <line x1="24" y1="188" x2="936" y2="188" stroke="#e2e8f0" stroke-width="1"/>
  <text x="44" y="208" font-family="system-ui,sans-serif" font-size="11" fill="#64748b">04/06/2025 14:23:11</text>
  <text x="205" y="208" font-family="system-ui,sans-serif" font-size="11" fill="#0f172a">pabellon@clinica.cl</text>
  <rect x="380" y="196" width="58" height="20" rx="5" fill="#dbeafe"/>
  <text x="409" y="210" font-family="system-ui,sans-serif" font-size="10" fill="#2563eb" font-weight="700" text-anchor="middle">UPDATE</text>
  <text x="470" y="208" font-family="system-ui,sans-serif" font-size="11" fill="#64748b">Solicitudes de Cirugía</text>
  <text x="650" y="208" font-family="system-ui,sans-serif" font-size="10" fill="#94a3b8" font-family="monospace">a3f87c2d...</text>
  <line x1="24" y1="224" x2="936" y2="224" stroke="#e2e8f0" stroke-width="1"/>
  <text x="44" y="244" font-family="system-ui,sans-serif" font-size="11" fill="#64748b">04/06/2025 13:47:05</text>
  <text x="205" y="244" font-family="system-ui,sans-serif" font-size="11" fill="#0f172a">pabellon@clinica.cl</text>
  <rect x="380" y="232" width="56" height="20" rx="5" fill="#dcfce7"/>
  <text x="408" y="246" font-family="system-ui,sans-serif" font-size="10" fill="#16a34a" font-weight="700" text-anchor="middle">INSERT</text>
  <text x="470" y="244" font-family="system-ui,sans-serif" font-size="11" fill="#64748b">Cirugías</text>
  <text x="650" y="244" font-family="system-ui,sans-serif" font-size="10" fill="#94a3b8">b1e92a4f...</text>
  <line x1="24" y1="260" x2="936" y2="260" stroke="#e2e8f0" stroke-width="1"/>
  <text x="44" y="280" font-family="system-ui,sans-serif" font-size="11" fill="#64748b">04/06/2025 12:15:38</text>
  <text x="205" y="280" font-family="system-ui,sans-serif" font-size="11" fill="#0f172a">dr.rodriguez@clinica.cl</text>
  <rect x="380" y="268" width="56" height="20" rx="5" fill="#dcfce7"/>
  <text x="408" y="282" font-family="system-ui,sans-serif" font-size="10" fill="#16a34a" font-weight="700" text-anchor="middle">INSERT</text>
  <text x="470" y="280" font-family="system-ui,sans-serif" font-size="11" fill="#64748b">Solicitudes de Cirugía</text>
  <text x="650" y="280" font-family="system-ui,sans-serif" font-size="10" fill="#94a3b8">c4d5e6f7...</text>
  <line x1="24" y1="296" x2="936" y2="296" stroke="#e2e8f0" stroke-width="1"/>
  <text x="44" y="316" font-family="system-ui,sans-serif" font-size="11" fill="#64748b">04/06/2025 10:02:19</text>
  <text x="205" y="316" font-family="system-ui,sans-serif" font-size="11" fill="#0f172a">pabellon@clinica.cl</text>
  <rect x="380" y="304" width="58" height="20" rx="5" fill="#dbeafe"/>
  <text x="409" y="318" font-family="system-ui,sans-serif" font-size="10" fill="#2563eb" font-weight="700" text-anchor="middle">UPDATE</text>
  <text x="470" y="316" font-family="system-ui,sans-serif" font-size="11" fill="#64748b">Insumos</text>
  <text x="650" y="316" font-family="system-ui,sans-serif" font-size="10" fill="#94a3b8">9f0a1b2c...</text>
  <line x1="24" y1="332" x2="936" y2="332" stroke="#e2e8f0" stroke-width="1"/>
  <text x="44" y="352" font-family="system-ui,sans-serif" font-size="11" fill="#64748b">03/06/2025 18:55:00</text>
  <text x="205" y="352" font-family="system-ui,sans-serif" font-size="11" fill="#0f172a">pabellon@clinica.cl</text>
  <rect x="380" y="340" width="54" height="20" rx="5" fill="#fee2e2"/>
  <text x="407" y="354" font-family="system-ui,sans-serif" font-size="10" fill="#dc2626" font-weight="700" text-anchor="middle">DELETE</text>
  <text x="470" y="352" font-family="system-ui,sans-serif" font-size="11" fill="#64748b">Bloqueos de Horario</text>
  <text x="650" y="352" font-family="system-ui,sans-serif" font-size="10" fill="#94a3b8">d2e3f4a5...</text>
  <line x1="24" y1="368" x2="936" y2="368" stroke="#e2e8f0" stroke-width="1"/>
  <text x="44" y="388" font-family="system-ui,sans-serif" font-size="11" fill="#64748b">03/06/2025 16:30:41</text>
  <text x="205" y="388" font-family="system-ui,sans-serif" font-size="11" fill="#0f172a">dr.martinez@clinica.cl</text>
  <rect x="380" y="376" width="56" height="20" rx="5" fill="#dcfce7"/>
  <text x="408" y="390" font-family="system-ui,sans-serif" font-size="10" fill="#16a34a" font-weight="700" text-anchor="middle">INSERT</text>
  <text x="470" y="388" font-family="system-ui,sans-serif" font-size="11" fill="#64748b">Pacientes</text>
  <text x="650" y="388" font-family="system-ui,sans-serif" font-size="10" fill="#94a3b8">e5f6a7b8...</text>
  <line x1="24" y1="404" x2="936" y2="404" stroke="#e2e8f0" stroke-width="1"/>
  <text x="44" y="424" font-family="system-ui,sans-serif" font-size="11" fill="#64748b">03/06/2025 14:12:08</text>
  <text x="205" y="424" font-family="system-ui,sans-serif" font-size="11" fill="#0f172a">pabellon@clinica.cl</text>
  <rect x="380" y="412" width="58" height="20" rx="5" fill="#dbeafe"/>
  <text x="409" y="426" font-family="system-ui,sans-serif" font-size="10" fill="#2563eb" font-weight="700" text-anchor="middle">UPDATE</text>
  <text x="470" y="424" font-family="system-ui,sans-serif" font-size="11" fill="#64748b">Configuración</text>
  <text x="650" y="424" font-family="system-ui,sans-serif" font-size="10" fill="#94a3b8">f6a7b8c9...</text>
  <line x1="24" y1="440" x2="936" y2="440" stroke="#e2e8f0" stroke-width="1"/>
  <text x="44" y="460" font-family="system-ui,sans-serif" font-size="11" fill="#64748b">03/06/2025 09:00:00</text>
  <text x="205" y="460" font-family="system-ui,sans-serif" font-size="11" fill="#0f172a">Sistema</text>
  <rect x="380" y="448" width="56" height="20" rx="5" fill="#dcfce7"/>
  <text x="408" y="462" font-family="system-ui,sans-serif" font-size="10" fill="#16a34a" font-weight="700" text-anchor="middle">INSERT</text>
  <text x="470" y="460" font-family="system-ui,sans-serif" font-size="11" fill="#64748b">Notificaciones</text>
  <text x="650" y="460" font-family="system-ui,sans-serif" font-size="10" fill="#94a3b8">07b8c9d0...</text>
  <!-- Pagination -->
  <text x="44" y="558" font-family="system-ui,sans-serif" font-size="11" fill="#94a3b8">Mostrando 1–8 de 1.247 registros</text>
  <rect x="780" y="540" width="34" height="28" rx="8" fill="#f1f5f9" stroke="#e2e8f0" stroke-width="1"/>
  <text x="797" y="559" font-family="system-ui,sans-serif" font-size="13" fill="#64748b" text-anchor="middle">‹</text>
  <rect x="822" y="540" width="34" height="28" rx="8" fill="#2563eb"/>
  <text x="839" y="559" font-family="system-ui,sans-serif" font-size="12" fill="#ffffff" font-weight="700" text-anchor="middle">1</text>
  <rect x="864" y="540" width="34" height="28" rx="8" fill="#f1f5f9" stroke="#e2e8f0" stroke-width="1"/>
  <text x="881" y="559" font-family="system-ui,sans-serif" font-size="12" fill="#64748b" text-anchor="middle">2</text>
  <rect x="906" y="540" width="34" height="28" rx="8" fill="#f1f5f9" stroke="#e2e8f0" stroke-width="1"/>
  <text x="923" y="559" font-family="system-ui,sans-serif" font-size="13" fill="#64748b" text-anchor="middle">›</text>
</svg>
