<svg xmlns="http://www.w3.org/2000/svg" viewBox="0 0 960 600" width="960" height="600">
  <rect width="960" height="600" fill="#f1f5f9"/>
  <!-- Header -->
  <rect width="960" height="60" fill="#ffffff" stroke="#e2e8f0" stroke-width="1"/>
  <text x="24" y="20" font-family="system-ui,sans-serif" font-size="9" fill="#94a3b8" font-weight="700" letter-spacing="1.5">INVENTARIO</text>
  <text x="24" y="44" font-family="system-ui,sans-serif" font-size="19" fill="#0f172a" font-weight="900">Control de Insumos</text>
  <!-- KPI cards -->
  <rect x="24" y="76" width="185" height="74" rx="12" fill="#ffffff" stroke="#e2e8f0" stroke-width="1"/>
  <text x="44" y="102" font-family="system-ui,sans-serif" font-size="11" fill="#64748b" font-weight="600">Total insumos</text>
  <text x="44" y="134" font-family="system-ui,sans-serif" font-size="28" fill="#0f172a" font-weight="900">248</text>
  <rect x="225" y="76" width="185" height="74" rx="12" fill="#fee2e2" stroke="#fca5a5" stroke-width="1.5"/>
  <text x="245" y="102" font-family="system-ui,sans-serif" font-size="11" fill="#991b1b" font-weight="600">Stock crítico</text>
  <text x="245" y="134" font-family="system-ui,sans-serif" font-size="28" fill="#dc2626" font-weight="900">3</text>
  <rect x="426" y="76" width="185" height="74" rx="12" fill="#fef3c7" stroke="#fcd34d" stroke-width="1.5"/>
  <text x="446" y="102" font-family="system-ui,sans-serif" font-size="11" fill="#92400e" font-weight="600">Stock bajo</text>
  <text x="446" y="134" font-family="system-ui,sans-serif" font-size="28" fill="#d97706" font-weight="900">7</text>
  <rect x="627" y="76" width="185" height="74" rx="12" fill="#dcfce7" stroke="#86efac" stroke-width="1.5"/>
  <text x="647" y="102" font-family="system-ui,sans-serif" font-size="11" fill="#166534" font-weight="600">En nivel óptimo</text>
  <text x="647" y="134" font-family="system-ui,sans-serif" font-size="28" fill="#16a34a" font-weight="900">238</text>
  <!-- Search + add -->
  <rect x="24" y="168" width="820" height="42" rx="10" fill="#ffffff" stroke="#e2e8f0" stroke-width="1"/>
  <text x="52" y="194" font-family="system-ui,sans-serif" font-size="13" fill="#94a3b8">🔍  Buscar por nombre, código o proveedor...</text>
  <rect x="860" y="168" width="76" height="42" rx="10" fill="#2563eb"/>
  <text x="898" y="194" font-family="system-ui,sans-serif" font-size="13" fill="#ffffff" font-weight="700" text-anchor="middle">+ Nuevo</text>
  <!-- Table -->
  <rect x="24" y="228" width="912" height="350" rx="12" fill="#ffffff" stroke="#e2e8f0" stroke-width="1"/>
  <rect x="24" y="228" width="912" height="36" rx="12" fill="#f8fafc"/>
  <rect x="24" y="248" width="912" height="16" fill="#f8fafc"/>
  <text x="44" y="252" font-family="system-ui,sans-serif" font-size="10" fill="#64748b" font-weight="700">INSUMO</text>
  <text x="310" y="252" font-family="system-ui,sans-serif" font-size="10" fill="#64748b" font-weight="700">CÓDIGO</text>
  <text x="420" y="252" font-family="system-ui,sans-serif" font-size="10" fill="#64748b" font-weight="700">PROVEEDOR</text>
  <text x="590" y="252" font-family="system-ui,sans-serif" font-size="10" fill="#64748b" font-weight="700">STOCK ACTUAL</text>
  <text x="720" y="252" font-family="system-ui,sans-serif" font-size="10" fill="#64748b" font-weight="700">MÍNIMO</text>
  <text x="820" y="252" font-family="system-ui,sans-serif" font-size="10" fill="#64748b" font-weight="700">ESTADO</text>
  <!-- Row 1 - Critical -->
  <line x1="24" y1="264" x2="936" y2="264" stroke="#e2e8f0" stroke-width="1"/>
  <text x="44" y="286" font-family="system-ui,sans-serif" font-size="12" fill="#0f172a" font-weight="600">Guante de látex 7.5</text>
  <text x="310" y="286" font-family="system-ui,sans-serif" font-size="11" fill="#64748b">GL-750</text>
  <text x="420" y="286" font-family="system-ui,sans-serif" font-size="11" fill="#64748b">MedSupply</text>
  <text x="590" y="286" font-family="system-ui,sans-serif" font-size="13" fill="#dc2626" font-weight="700">2</text>
  <text x="720" y="286" font-family="system-ui,sans-serif" font-size="12" fill="#64748b">50</text>
  <rect x="820" y="273" width="62" height="20" rx="5" fill="#fee2e2"/>
  <text x="851" y="287" font-family="system-ui,sans-serif" font-size="10" fill="#dc2626" font-weight="700" text-anchor="middle">CRÍTICO</text>
  <rect x="590" y="290" width="90" height="4" rx="2" fill="#fee2e2"/>
  <rect x="590" y="290" width="4" height="4" rx="2" fill="#dc2626"/>
  <!-- Row 2 - Low -->
  <line x1="24" y1="304" x2="936" y2="304" stroke="#e2e8f0" stroke-width="1"/>
  <text x="44" y="326" font-family="system-ui,sans-serif" font-size="12" fill="#0f172a" font-weight="600">Sutura Vicryl 2-0</text>
  <text x="310" y="326" font-family="system-ui,sans-serif" font-size="11" fill="#64748b">SV-20</text>
  <text x="420" y="326" font-family="system-ui,sans-serif" font-size="11" fill="#64748b">Ethicon</text>
  <text x="590" y="326" font-family="system-ui,sans-serif" font-size="13" fill="#d97706" font-weight="700">18</text>
  <text x="720" y="326" font-family="system-ui,sans-serif" font-size="12" fill="#64748b">25</text>
  <rect x="820" y="313" width="54" height="20" rx="5" fill="#fef3c7"/>
  <text x="847" y="327" font-family="system-ui,sans-serif" font-size="10" fill="#d97706" font-weight="700" text-anchor="middle">BAJO</text>
  <rect x="590" y="330" width="90" height="4" rx="2" fill="#fef3c7"/>
  <rect x="590" y="330" width="64" height="4" rx="2" fill="#d97706"/>
  <!-- Row 3 - OK -->
  <line x1="24" y1="344" x2="936" y2="344" stroke="#e2e8f0" stroke-width="1"/>
  <text x="44" y="366" font-family="system-ui,sans-serif" font-size="12" fill="#0f172a" font-weight="600">Bisturí desechable #10</text>
  <text x="310" y="366" font-family="system-ui,sans-serif" font-size="11" fill="#64748b">BD-010</text>
  <text x="420" y="366" font-family="system-ui,sans-serif" font-size="11" fill="#64748b">Bard Medical</text>
  <text x="590" y="366" font-family="system-ui,sans-serif" font-size="12" fill="#0f172a" font-weight="600">85</text>
  <text x="720" y="366" font-family="system-ui,sans-serif" font-size="12" fill="#64748b">20</text>
  <rect x="820" y="353" width="46" height="20" rx="5" fill="#dcfce7"/>
  <text x="843" y="367" font-family="system-ui,sans-serif" font-size="10" fill="#16a34a" font-weight="700" text-anchor="middle">OK</text>
  <rect x="590" y="370" width="90" height="4" rx="2" fill="#dcfce7"/>
  <rect x="590" y="370" width="90" height="4" rx="2" fill="#16a34a"/>
  <!-- Row 4 -->
  <line x1="24" y1="384" x2="936" y2="384" stroke="#e2e8f0" stroke-width="1"/>
  <text x="44" y="406" font-family="system-ui,sans-serif" font-size="12" fill="#0f172a" font-weight="600">Campo estéril grande</text>
  <text x="310" y="406" font-family="system-ui,sans-serif" font-size="11" fill="#64748b">CE-LG</text>
  <text x="420" y="406" font-family="system-ui,sans-serif" font-size="11" fill="#64748b">SterilMed</text>
  <text x="590" y="406" font-family="system-ui,sans-serif" font-size="12" fill="#0f172a" font-weight="600">124</text>
  <text x="720" y="406" font-family="system-ui,sans-serif" font-size="12" fill="#64748b">30</text>
  <rect x="820" y="393" width="46" height="20" rx="5" fill="#dcfce7"/>
  <text x="843" y="407" font-family="system-ui,sans-serif" font-size="10" fill="#16a34a" font-weight="700" text-anchor="middle">OK</text>
  <rect x="590" y="410" width="90" height="4" rx="2" fill="#dcfce7"/>
  <rect x="590" y="410" width="90" height="4" rx="2" fill="#16a34a"/>
  <!-- Row 5 - Critical -->
  <line x1="24" y1="424" x2="936" y2="424" stroke="#e2e8f0" stroke-width="1"/>
  <text x="44" y="446" font-family="system-ui,sans-serif" font-size="12" fill="#0f172a" font-weight="600">Electrocauterio monopolar</text>
  <text x="310" y="446" font-family="system-ui,sans-serif" font-size="11" fill="#64748b">EM-MP</text>
  <text x="420" y="446" font-family="system-ui,sans-serif" font-size="11" fill="#64748b">Valleylab</text>
  <text x="590" y="446" font-family="system-ui,sans-serif" font-size="13" fill="#dc2626" font-weight="700">1</text>
  <text x="720" y="446" font-family="system-ui,sans-serif" font-size="12" fill="#64748b">10</text>
  <rect x="820" y="433" width="62" height="20" rx="5" fill="#fee2e2"/>
  <text x="851" y="447" font-family="system-ui,sans-serif" font-size="10" fill="#dc2626" font-weight="700" text-anchor="middle">CRÍTICO</text>
  <rect x="590" y="450" width="90" height="4" rx="2" fill="#fee2e2"/>
  <rect x="590" y="450" width="9" height="4" rx="2" fill="#dc2626"/>
  <!-- Row 6 -->
  <line x1="24" y1="464" x2="936" y2="464" stroke="#e2e8f0" stroke-width="1"/>
  <text x="44" y="486" font-family="system-ui,sans-serif" font-size="12" fill="#0f172a" font-weight="600">Sonda Foley 16 Fr</text>
  <text x="310" y="486" font-family="system-ui,sans-serif" font-size="11" fill="#64748b">SF-16</text>
  <text x="420" y="486" font-family="system-ui,sans-serif" font-size="11" fill="#64748b">Bard</text>
  <text x="590" y="486" font-family="system-ui,sans-serif" font-size="12" fill="#0f172a" font-weight="600">45</text>
  <text x="720" y="486" font-family="system-ui,sans-serif" font-size="12" fill="#64748b">15</text>
  <rect x="820" y="473" width="46" height="20" rx="5" fill="#dcfce7"/>
  <text x="843" y="487" font-family="system-ui,sans-serif" font-size="10" fill="#16a34a" font-weight="700" text-anchor="middle">OK</text>
  <rect x="590" y="490" width="90" height="4" rx="2" fill="#dcfce7"/>
  <rect x="590" y="490" width="90" height="4" rx="2" fill="#16a34a"/>
  <!-- Row 7 - Low -->
  <line x1="24" y1="504" x2="936" y2="504" stroke="#e2e8f0" stroke-width="1"/>
  <text x="44" y="526" font-family="system-ui,sans-serif" font-size="12" fill="#0f172a" font-weight="600">Gasa estéril 10x10</text>
  <text x="310" y="526" font-family="system-ui,sans-serif" font-size="11" fill="#64748b">GE-10</text>
  <text x="420" y="526" font-family="system-ui,sans-serif" font-size="11" fill="#64748b">SterilMed</text>
  <text x="590" y="526" font-family="system-ui,sans-serif" font-size="13" fill="#d97706" font-weight="700">22</text>
  <text x="720" y="526" font-family="system-ui,sans-serif" font-size="12" fill="#64748b">30</text>
  <rect x="820" y="513" width="54" height="20" rx="5" fill="#fef3c7"/>
  <text x="847" y="527" font-family="system-ui,sans-serif" font-size="10" fill="#d97706" font-weight="700" text-anchor="middle">BAJO</text>
  <rect x="590" y="530" width="90" height="4" rx="2" fill="#fef3c7"/>
  <rect x="590" y="530" width="66" height="4" rx="2" fill="#d97706"/>
</svg>
