<svg xmlns="http://www.w3.org/2000/svg" viewBox="0 0 960 600" width="960" height="600">
  <rect width="960" height="600" fill="#f1f5f9"/>
  <!-- Header -->
  <rect width="960" height="60" fill="#ffffff" stroke="#e2e8f0" stroke-width="1"/>
  <text x="24" y="20" font-family="system-ui,sans-serif" font-size="9" fill="#94a3b8" font-weight="700" letter-spacing="1.5">MIS SOLICITUDES</text>
  <text x="24" y="44" font-family="system-ui,sans-serif" font-size="19" fill="#0f172a" font-weight="900">Dr. Carlos Rodríguez</text>
  <rect x="896" y="16" width="36" height="36" rx="10" fill="#f1f5f9"/>
  <text x="905" y="40" font-family="system-ui,sans-serif" font-size="18" fill="#64748b">🔔</text>
  <!-- KPI cards -->
  <rect x="24" y="76" width="195" height="78" rx="12" fill="#fef3c7" stroke="#fcd34d" stroke-width="1.5"/>
  <text x="44" y="102" font-family="system-ui,sans-serif" font-size="11" fill="#92400e" font-weight="700">Pendientes</text>
  <text x="44" y="136" font-family="system-ui,sans-serif" font-size="30" fill="#d97706" font-weight="900">3</text>
  <rect x="235" y="76" width="195" height="78" rx="12" fill="#dbeafe" stroke="#93c5fd" stroke-width="1.5"/>
  <text x="255" y="102" font-family="system-ui,sans-serif" font-size="11" fill="#1e40af" font-weight="700">Aprobadas</text>
  <text x="255" y="136" font-family="system-ui,sans-serif" font-size="30" fill="#2563eb" font-weight="900">12</text>
  <rect x="446" y="76" width="215" height="78" rx="12" fill="#dcfce7" stroke="#86efac" stroke-width="1.5"/>
  <text x="466" y="102" font-family="system-ui,sans-serif" font-size="11" fill="#166534" font-weight="700">Cirugías este mes</text>
  <text x="466" y="136" font-family="system-ui,sans-serif" font-size="30" fill="#16a34a" font-weight="900">5</text>
  <rect x="677" y="76" width="195" height="78" rx="12" fill="#fee2e2" stroke="#fca5a5" stroke-width="1.5"/>
  <text x="697" y="102" font-family="system-ui,sans-serif" font-size="11" fill="#991b1b" font-weight="700">Rechazadas</text>
  <text x="697" y="136" font-family="system-ui,sans-serif" font-size="30" fill="#dc2626" font-weight="900">1</text>
  <!-- Search bar -->
  <rect x="24" y="172" width="912" height="42" rx="10" fill="#ffffff" stroke="#e2e8f0" stroke-width="1"/>
  <text x="52" y="198" font-family="system-ui,sans-serif" font-size="13" fill="#94a3b8">🔍  Buscar por paciente, código o estado...</text>
  <!-- Cards row 1 -->
  <rect x="24" y="232" width="448" height="100" rx="12" fill="#ffffff" stroke="#e2e8f0" stroke-width="1"/>
  <rect x="44" y="252" width="74" height="22" rx="6" fill="#fef3c7"/>
  <text x="81" y="267" font-family="system-ui,sans-serif" font-size="10" fill="#d97706" font-weight="700" text-anchor="middle">PENDIENTE</text>
  <text x="44" y="298" font-family="system-ui,sans-serif" font-size="14" fill="#0f172a" font-weight="900">María González</text>
  <text x="44" y="316" font-family="system-ui,sans-serif" font-size="11" fill="#64748b">Colecistectomía laparoscópica · OP-2025-0087</text>
  <text x="44" y="330" font-family="system-ui,sans-serif" font-size="11" fill="#94a3b8">Fecha preferida: 10 Jun 2025</text>
  <rect x="488" y="232" width="448" height="100" rx="12" fill="#ffffff" stroke="#e2e8f0" stroke-width="1"/>
  <rect x="508" y="252" width="70" height="22" rx="6" fill="#dbeafe"/>
  <text x="543" y="267" font-family="system-ui,sans-serif" font-size="10" fill="#2563eb" font-weight="700" text-anchor="middle">ACEPTADA</text>
  <text x="508" y="298" font-family="system-ui,sans-serif" font-size="14" fill="#0f172a" font-weight="900">Juan Fuentes</text>
  <text x="508" y="316" font-family="system-ui,sans-serif" font-size="11" fill="#64748b">Hernioplastía inguinal · OP-2025-0082</text>
  <text x="508" y="330" font-family="system-ui,sans-serif" font-size="11" fill="#94a3b8">Fecha asignada: 4 Jun 2025</text>
  <!-- Cards row 2 -->
  <rect x="24" y="348" width="448" height="100" rx="12" fill="#ffffff" stroke="#e2e8f0" stroke-width="1"/>
  <rect x="44" y="368" width="82" height="22" rx="6" fill="#dcfce7"/>
  <text x="85" y="383" font-family="system-ui,sans-serif" font-size="10" fill="#16a34a" font-weight="700" text-anchor="middle">PROGRAMADA</text>
  <text x="44" y="414" font-family="system-ui,sans-serif" font-size="14" fill="#0f172a" font-weight="900">Ana Martínez</text>
  <text x="44" y="432" font-family="system-ui,sans-serif" font-size="11" fill="#64748b">Apendicectomía · OP-2025-0091</text>
  <text x="44" y="446" font-family="system-ui,sans-serif" font-size="11" fill="#94a3b8">Pabellón 1 · 5 Jun 2025 · 08:00</text>
  <rect x="488" y="348" width="448" height="100" rx="12" fill="#ffffff" stroke="#e2e8f0" stroke-width="1"/>
  <rect x="508" y="368" width="74" height="22" rx="6" fill="#fef3c7"/>
  <text x="545" y="383" font-family="system-ui,sans-serif" font-size="10" fill="#d97706" font-weight="700" text-anchor="middle">PENDIENTE</text>
  <text x="508" y="414" font-family="system-ui,sans-serif" font-size="14" fill="#0f172a" font-weight="900">Pedro Soto</text>
  <text x="508" y="432" font-family="system-ui,sans-serif" font-size="11" fill="#64748b">Safenectomía bilateral · OP-2025-0095</text>
  <text x="508" y="446" font-family="system-ui,sans-serif" font-size="11" fill="#94a3b8">Fecha preferida: 15 Jun 2025</text>
  <!-- Cards row 3 -->
  <rect x="24" y="464" width="448" height="100" rx="12" fill="#ffffff" stroke="#e2e8f0" stroke-width="1"/>
  <rect x="44" y="484" width="82" height="22" rx="6" fill="#dcfce7"/>
  <text x="85" y="499" font-family="system-ui,sans-serif" font-size="10" fill="#16a34a" font-weight="700" text-anchor="middle">PROGRAMADA</text>
  <text x="44" y="530" font-family="system-ui,sans-serif" font-size="14" fill="#0f172a" font-weight="900">Roberto Campos</text>
  <text x="44" y="548" font-family="system-ui,sans-serif" font-size="11" fill="#64748b">Colectomía parcial · OP-2025-0099</text>
  <rect x="488" y="464" width="448" height="100" rx="12" fill="#ffffff" stroke="#e2e8f0" stroke-width="1"/>
  <rect x="508" y="484" width="62" height="22" rx="6" fill="#f1f5f9"/>
  <text x="539" y="499" font-family="system-ui,sans-serif" font-size="10" fill="#475569" font-weight="700" text-anchor="middle">CERRADA</text>
  <text x="508" y="530" font-family="system-ui,sans-serif" font-size="14" fill="#0f172a" font-weight="900">Carmen Reyes</text>
  <text x="508" y="548" font-family="system-ui,sans-serif" font-size="11" fill="#64748b">Mastectomía parcial · OP-2025-0070</text>
</svg>
